<mxfile host="65bd71144e">
    <diagram id="Rx0yvw6nCxP3Z2ogGNhY" name="Page-1">
        <mxGraphModel dx="2620" dy="691" grid="1" gridSize="10" guides="1" tooltips="1" connect="1" arrows="1" fold="1" page="1" pageScale="1" pageWidth="850" pageHeight="1100" math="0" shadow="0">
            <root>
                <mxCell id="0"/>
                <mxCell id="1" parent="0"/>
                <mxCell id="8" value="Usuario&amp;nbsp;" style="verticalLabelPosition=bottom;shadow=0;dashed=0;align=center;html=1;verticalAlign=top;strokeWidth=1;shape=mxgraph.mockup.containers.userMale;strokeColor=#666666;strokeColor2=#008cff;" vertex="1" parent="1">
                    <mxGeometry x="-430" y="276.57" width="100" height="100" as="geometry"/>
                </mxCell>
                <mxCell id="12" value="" style="rounded=0;whiteSpace=wrap;html=1;" vertex="1" parent="1">
                    <mxGeometry x="30" y="90" width="1100" height="700" as="geometry"/>
                </mxCell>
                <mxCell id="21" style="edgeStyle=orthogonalEdgeStyle;html=1;entryX=0.5;entryY=1;entryDx=0;entryDy=0;entryPerimeter=0;fillColor=#ffe6cc;strokeColor=#d79b00;strokeWidth=3;" edge="1" parent="1" source="8" target="7">
                    <mxGeometry relative="1" as="geometry">
                        <mxPoint x="-260" y="640" as="targetPoint"/>
                        <Array as="points">
                            <mxPoint x="-380" y="510"/>
                            <mxPoint x="200" y="510"/>
                        </Array>
                    </mxGeometry>
                </mxCell>
                <mxCell id="22" value="INSERIR NOVOS LIVROS" style="edgeLabel;html=1;align=center;verticalAlign=middle;resizable=0;points=[];" vertex="1" connectable="0" parent="21">
                    <mxGeometry x="-0.1219" relative="1" as="geometry">
                        <mxPoint as="offset"/>
                    </mxGeometry>
                </mxCell>
                <mxCell id="29" style="edgeStyle=orthogonalEdgeStyle;html=1;fillColor=#ffe6cc;strokeColor=#d79b00;strokeWidth=3;" edge="1" parent="1" source="2" target="5">
                    <mxGeometry relative="1" as="geometry"/>
                </mxCell>
                <mxCell id="30" value="LAMBDA CADASTRA O NOVO&amp;nbsp;&lt;div&gt;LIVRO NO DYNAMODB&lt;/div&gt;" style="edgeLabel;html=1;align=center;verticalAlign=middle;resizable=0;points=[];" vertex="1" connectable="0" parent="29">
                    <mxGeometry x="0.1818" y="-4" relative="1" as="geometry">
                        <mxPoint as="offset"/>
                    </mxGeometry>
                </mxCell>
                <mxCell id="2" value="&lt;div style=&quot;color: rgb(15, 20, 26); min-inline-size: 0px; word-break: break-word; padding-block-start: 1px; font-family: &amp;quot;Amazon Ember&amp;quot;, &amp;quot;Helvetica Neue&amp;quot;, Roboto, Arial, sans-serif; text-align: start; text-wrap: wrap; background-color: rgb(255, 255, 255);&quot; class=&quot;awsui_title_2qdw9_y4f8q_295 awsui_title-variant-h1_2qdw9_y4f8q_300 awsui_refresh_2qdw9_y4f8q_217&quot;&gt;&lt;h1 style=&quot;margin: 0.67em 0px; display: inline; margin-block: 0px; letter-spacing: -0.48px; line-height: 30px; overflow: hidden; text-overflow: ellipsis; text-wrap: nowrap;&quot; data-awsui-analytics-label=&quot;.awsui_heading-text_105ke_268sp_5&quot; class=&quot;awsui_heading_2qdw9_y4f8q_371 awsui_heading-variant-h1_2qdw9_y4f8q_382&quot;&gt;&lt;font style=&quot;font-size: 12px;&quot;&gt;&lt;span style=&quot;letter-spacing: -0.48px; line-height: 30px; -webkit-font-smoothing: antialiased;&quot; id=&quot;heading:r1:&quot; class=&quot;awsui_heading-text_2qdw9_y4f8q_398 awsui_heading-text_105ke_268sp_5 awsui_heading-text-variant-h1_2qdw9_y4f8q_401&quot;&gt;unicarioca-202501-ConsumerFunction&lt;/span&gt;&lt;/font&gt;&lt;/h1&gt;&lt;/div&gt;&lt;div style=&quot;align-items: center; display: flex; min-block-size: 32px; padding-block: 0px; padding-inline: 0px; color: rgb(15, 20, 26); font-family: &amp;quot;Amazon Ember&amp;quot;, &amp;quot;Helvetica Neue&amp;quot;, Roboto, Arial, sans-serif; font-size: 14px; text-align: start; text-wrap: wrap; background-color: rgb(255, 255, 255);&quot; class=&quot;awsui_actions_2qdw9_y4f8q_263 awsui_actions-variant-h1_2qdw9_y4f8q_271 awsui_refresh_2qdw9_y4f8q_217 awsui_actions-centered_2qdw9_y4f8q_268&quot;&gt;&lt;div style=&quot;display: flex; flex-flow: wrap; gap: 8px;&quot; class=&quot;awsui_root_18582_19ri3_145 awsui_horizontal_18582_19ri3_160 awsui_horizontal-xs_18582_19ri3_170&quot;&gt;&lt;/div&gt;&lt;/div&gt;" style="outlineConnect=0;dashed=0;verticalLabelPosition=bottom;verticalAlign=top;align=center;html=1;shape=mxgraph.aws3.lambda_function;fillColor=#F58534;gradientColor=none;" vertex="1" parent="1">
                    <mxGeometry x="940.5" y="554" width="69" height="72" as="geometry"/>
                </mxCell>
                <mxCell id="9" value="Site livros" style="verticalLabelPosition=bottom;aspect=fixed;html=1;shape=mxgraph.salesforce.web;" vertex="1" parent="1">
                    <mxGeometry x="-190" y="273.15" width="135.26" height="106.85" as="geometry"/>
                </mxCell>
                <mxCell id="14" style="edgeStyle=none;html=1;fillColor=#dae8fc;strokeColor=#6c8ebf;strokeWidth=3;" edge="1" parent="1" source="9" target="7">
                    <mxGeometry relative="1" as="geometry">
                        <mxPoint x="-20" y="240" as="targetPoint"/>
                    </mxGeometry>
                </mxCell>
                <mxCell id="15" value="GET BOOKS" style="edgeLabel;html=1;align=center;verticalAlign=middle;resizable=0;points=[];" vertex="1" connectable="0" parent="14">
                    <mxGeometry x="-0.4173" y="-2" relative="1" as="geometry">
                        <mxPoint as="offset"/>
                    </mxGeometry>
                </mxCell>
                <mxCell id="10" style="edgeStyle=none;html=1;entryX=0.007;entryY=0.476;entryDx=0;entryDy=0;entryPerimeter=0;fillColor=#dae8fc;strokeColor=#6c8ebf;strokeWidth=3;" edge="1" parent="1" source="8" target="9">
                    <mxGeometry relative="1" as="geometry"/>
                </mxCell>
                <mxCell id="11" value="Acessa o site&amp;nbsp;" style="edgeLabel;html=1;align=center;verticalAlign=middle;resizable=0;points=[];" vertex="1" connectable="0" parent="10">
                    <mxGeometry x="-0.1912" relative="1" as="geometry">
                        <mxPoint as="offset"/>
                    </mxGeometry>
                </mxCell>
                <mxCell id="3" value="&lt;span style=&quot;color: rgb(15, 20, 26); font-family: &amp;quot;Amazon Ember&amp;quot;, &amp;quot;Helvetica Neue&amp;quot;, Roboto, Arial, sans-serif; font-weight: 700; letter-spacing: -0.48px; text-align: start; background-color: rgb(255, 255, 255);&quot;&gt;&lt;font&gt;unicarioca-202501-ProducerFunction&lt;/font&gt;&lt;/span&gt;" style="outlineConnect=0;dashed=0;verticalLabelPosition=bottom;verticalAlign=top;align=center;html=1;shape=mxgraph.aws3.lambda_function;fillColor=#F58534;gradientColor=none;" vertex="1" parent="1">
                    <mxGeometry x="420" y="558" width="69" height="72" as="geometry"/>
                </mxCell>
                <mxCell id="19" style="edgeStyle=orthogonalEdgeStyle;html=1;fillColor=#dae8fc;strokeColor=#6c8ebf;strokeWidth=3;" edge="1" parent="1" source="4" target="5">
                    <mxGeometry relative="1" as="geometry"/>
                </mxCell>
                <mxCell id="20" value="VAI NO DYNAMO PARA BUSCAR OS LIVROS" style="edgeLabel;html=1;align=center;verticalAlign=middle;resizable=0;points=[];" vertex="1" connectable="0" parent="19">
                    <mxGeometry x="-0.2589" relative="1" as="geometry">
                        <mxPoint as="offset"/>
                    </mxGeometry>
                </mxCell>
                <mxCell id="4" value="&lt;div style=&quot;color: rgb(15, 20, 26); min-inline-size: 0px; word-break: break-word; padding-block-start: 1px; font-family: &amp;quot;Amazon Ember&amp;quot;, &amp;quot;Helvetica Neue&amp;quot;, Roboto, Arial, sans-serif; text-align: start; text-wrap: wrap; background-color: rgb(255, 255, 255);&quot; class=&quot;awsui_title_2qdw9_y4f8q_295 awsui_title-variant-h1_2qdw9_y4f8q_300 awsui_refresh_2qdw9_y4f8q_217&quot;&gt;&lt;h1 style=&quot;margin: 0.67em 0px; display: inline; margin-block: 0px; letter-spacing: -0.48px; line-height: 30px; overflow: hidden; text-overflow: ellipsis; text-wrap: nowrap;&quot; data-awsui-analytics-label=&quot;.awsui_heading-text_105ke_268sp_5&quot; class=&quot;awsui_heading_2qdw9_y4f8q_371 awsui_heading-variant-h1_2qdw9_y4f8q_382&quot;&gt;&lt;font style=&quot;font-size: 12px;&quot;&gt;&lt;span style=&quot;letter-spacing: -0.48px; line-height: 30px; -webkit-font-smoothing: antialiased;&quot; id=&quot;heading:r1:&quot; class=&quot;awsui_heading-text_2qdw9_y4f8q_398 awsui_heading-text_105ke_268sp_5 awsui_heading-text-variant-h1_2qdw9_y4f8q_401&quot;&gt;unicarioca-202501-ListBooksFunction-7NjuIn1CGyQU&lt;/span&gt;&lt;font style=&quot;&quot; color=&quot;rgba(0, 0, 0, 0)&quot;&gt;&lt;span style=&quot;color: rgb(101, 104, 113); font-weight: 400;&quot; class=&quot;awsui_counter_2qdw9_y4f8q_426&quot;&gt;&lt;/span&gt;&lt;/font&gt;&lt;/font&gt;&lt;/h1&gt;&lt;/div&gt;&lt;div style=&quot;align-items: center; display: flex; min-block-size: 32px; padding-block: 0px; padding-inline: 0px; color: rgb(15, 20, 26); font-family: &amp;quot;Amazon Ember&amp;quot;, &amp;quot;Helvetica Neue&amp;quot;, Roboto, Arial, sans-serif; font-size: 14px; text-align: start; text-wrap: wrap; background-color: rgb(255, 255, 255);&quot; class=&quot;awsui_actions_2qdw9_y4f8q_263 awsui_actions-variant-h1_2qdw9_y4f8q_271 awsui_refresh_2qdw9_y4f8q_217 awsui_actions-centered_2qdw9_y4f8q_268&quot;&gt;&lt;div style=&quot;display: flex; flex-flow: wrap; gap: 8px;&quot; class=&quot;awsui_root_18582_19ri3_145 awsui_horizontal_18582_19ri3_160 awsui_horizontal-xs_18582_19ri3_170&quot;&gt;&lt;/div&gt;&lt;/div&gt;" style="outlineConnect=0;dashed=0;verticalLabelPosition=bottom;verticalAlign=top;align=center;html=1;shape=mxgraph.aws3.lambda_function;fillColor=#F58534;gradientColor=none;" vertex="1" parent="1">
                    <mxGeometry x="420" y="180" width="69" height="72" as="geometry"/>
                </mxCell>
                <mxCell id="5" value="Amazon DynamoDB" style="sketch=0;outlineConnect=0;fontColor=#232F3E;gradientColor=none;strokeColor=#ffffff;fillColor=#232F3E;dashed=0;verticalLabelPosition=middle;verticalAlign=bottom;align=center;html=1;whiteSpace=wrap;fontSize=10;fontStyle=1;spacing=3;shape=mxgraph.aws4.productIcon;prIcon=mxgraph.aws4.dynamodb;" vertex="1" parent="1">
                    <mxGeometry x="920" y="294" width="110" height="150" as="geometry"/>
                </mxCell>
                <mxCell id="6" value="&lt;span style=&quot;color: rgb(101, 104, 113); font-family: &amp;quot;Amazon Ember&amp;quot;, &amp;quot;Helvetica Neue&amp;quot;, Roboto, Arial, sans-serif; font-size: 14px; font-weight: 700; text-align: left; background-color: rgb(255, 255, 255);&quot;&gt;f2s-academy-books-queue-dev&lt;/span&gt;" style="sketch=0;points=[[0,0,0],[0.25,0,0],[0.5,0,0],[0.75,0,0],[1,0,0],[0,1,0],[0.25,1,0],[0.5,1,0],[0.75,1,0],[1,1,0],[0,0.25,0],[0,0.5,0],[0,0.75,0],[1,0.25,0],[1,0.5,0],[1,0.75,0]];outlineConnect=0;fontColor=#232F3E;fillColor=#E7157B;strokeColor=#ffffff;dashed=0;verticalLabelPosition=bottom;verticalAlign=top;align=center;html=1;fontSize=12;fontStyle=0;aspect=fixed;shape=mxgraph.aws4.resourceIcon;resIcon=mxgraph.aws4.sqs;" vertex="1" parent="1">
                    <mxGeometry x="650" y="554" width="80" height="80" as="geometry"/>
                </mxCell>
                <mxCell id="17" style="edgeStyle=orthogonalEdgeStyle;html=1;fillColor=#dae8fc;strokeColor=#6c8ebf;strokeWidth=3;" edge="1" parent="1" source="7" target="4">
                    <mxGeometry relative="1" as="geometry">
                        <Array as="points">
                            <mxPoint x="200" y="210"/>
                        </Array>
                    </mxGeometry>
                </mxCell>
                <mxCell id="18" value="LAMBDA GET LIVROS&amp;nbsp;" style="edgeLabel;html=1;align=center;verticalAlign=middle;resizable=0;points=[];" vertex="1" connectable="0" parent="17">
                    <mxGeometry x="-0.1426" y="3" relative="1" as="geometry">
                        <mxPoint as="offset"/>
                    </mxGeometry>
                </mxCell>
                <mxCell id="23" style="edgeStyle=orthogonalEdgeStyle;html=1;fillColor=#ffe6cc;strokeColor=#d79b00;strokeWidth=3;" edge="1" parent="1" source="7" target="3">
                    <mxGeometry relative="1" as="geometry">
                        <Array as="points">
                            <mxPoint x="455" y="380"/>
                        </Array>
                    </mxGeometry>
                </mxCell>
                <mxCell id="24" value="INSERIR NOVOS LIVROS" style="edgeLabel;html=1;align=center;verticalAlign=middle;resizable=0;points=[];" vertex="1" connectable="0" parent="23">
                    <mxGeometry x="-0.5174" y="-1" relative="1" as="geometry">
                        <mxPoint as="offset"/>
                    </mxGeometry>
                </mxCell>
                <mxCell id="7" value="&lt;span style=&quot;color: rgb(101, 104, 113); font-family: &amp;quot;Amazon Ember&amp;quot;, &amp;quot;Helvetica Neue&amp;quot;, Roboto, Arial, sans-serif; font-size: 14px; font-weight: 700; text-align: left; background-color: rgb(255, 255, 255);&quot;&gt;unicarioca-202501&lt;/span&gt;" style="sketch=0;points=[[0,0,0],[0.25,0,0],[0.5,0,0],[0.75,0,0],[1,0,0],[0,1,0],[0.25,1,0],[0.5,1,0],[0.75,1,0],[1,1,0],[0,0.25,0],[0,0.5,0],[0,0.75,0],[1,0.25,0],[1,0.5,0],[1,0.75,0]];outlineConnect=0;fontColor=#232F3E;fillColor=#E7157B;strokeColor=#ffffff;dashed=0;verticalLabelPosition=bottom;verticalAlign=top;align=center;html=1;fontSize=12;fontStyle=0;aspect=fixed;shape=mxgraph.aws4.resourceIcon;resIcon=mxgraph.aws4.api_gateway;" vertex="1" parent="1">
                    <mxGeometry x="140" y="266.57" width="120" height="120" as="geometry"/>
                </mxCell>
                <mxCell id="25" style="edgeStyle=orthogonalEdgeStyle;html=1;entryX=0;entryY=0.5;entryDx=0;entryDy=0;entryPerimeter=0;strokeWidth=3;fillColor=#ffe6cc;strokeColor=#d79b00;" edge="1" parent="1" source="3" target="6">
                    <mxGeometry relative="1" as="geometry"/>
                </mxCell>
                <mxCell id="26" value="POSTA NA FILA&amp;nbsp;&lt;div&gt;NOVO LIVRO&lt;/div&gt;" style="edgeLabel;html=1;align=center;verticalAlign=middle;resizable=0;points=[];" vertex="1" connectable="0" parent="25">
                    <mxGeometry x="-0.1056" y="5" relative="1" as="geometry">
                        <mxPoint as="offset"/>
                    </mxGeometry>
                </mxCell>
                <mxCell id="27" style="edgeStyle=orthogonalEdgeStyle;html=1;exitX=1;exitY=0.5;exitDx=0;exitDy=0;exitPerimeter=0;entryX=0;entryY=0.5;entryDx=0;entryDy=0;entryPerimeter=0;fillColor=#ffe6cc;strokeColor=#d79b00;strokeWidth=3;" edge="1" parent="1" source="6" target="2">
                    <mxGeometry relative="1" as="geometry">
                        <Array as="points">
                            <mxPoint x="730" y="590"/>
                        </Array>
                    </mxGeometry>
                </mxCell>
                <mxCell id="28" value="LAMBDA CONSOME O NOVO&amp;nbsp;&lt;div&gt;LIVRO CADASTRADO&lt;/div&gt;" style="edgeLabel;html=1;align=center;verticalAlign=middle;resizable=0;points=[];" vertex="1" connectable="0" parent="27">
                    <mxGeometry x="-0.0117" relative="1" as="geometry">
                        <mxPoint as="offset"/>
                    </mxGeometry>
                </mxCell>
            </root>
        </mxGraphModel>
    </diagram>
</mxfile>